<?xml version="1.0" encoding="UTF-8"?>
<svg width="110px" height="110px" viewBox="0 0 110 110" version="1.1" xmlns="http://www.w3.org/2000/svg" xmlns:xlink="http://www.w3.org/1999/xlink">
    <title>Group 4</title>
    <g id="Page-1" stroke="none" stroke-width="1" fill="none" fill-rule="evenodd">
        <g id="Milieu-2026-Microsite-Ref-Copy-4" transform="translate(-622.9004, -483)">
            <g id="Group" transform="translate(622.5599, 483.6137)">
                <path d="M93.5740004,3.61303537 C98.9482235,6.35133879 103.317603,10.7207185 106.055907,16.0949416 C108.774899,21.4312654 109.168942,26.2541176 109.168942,46.4986674 L109.168942,62.1702746 C109.168942,82.4148243 108.774899,87.2376766 106.055907,92.5740004 C103.317603,97.9482235 98.9482235,102.317603 93.5740004,105.055907 C88.2376766,107.774899 83.4148243,108.168942 63.1702746,108.168942 L47.4986674,108.168942 C27.2541176,108.168942 22.4312654,107.774899 17.0949416,105.055907 C11.7207185,102.317603 7.35133879,97.9482235 4.61303537,92.5740004 C1.8940426,87.2376766 1.5,82.4148243 1.5,62.1702746 L1.5,46.4986674 C1.5,26.2541176 1.8940426,21.4312654 4.61303537,16.0949416 C7.35133879,10.7207185 11.7207185,6.35133879 17.0949416,3.61303537 C22.4312654,0.894042602 27.2541176,0.5 47.4986674,0.5 L63.1702746,0.5 C83.4148243,0.5 88.2376766,0.894042602 93.5740004,3.61303537 Z" id="Rectangle-8" stroke="#686868" fill="#242423" transform="translate(55.3345, 54.3345) rotate(90) translate(-55.3345, -54.3345)"></path>
                <g transform="translate(35.5222, 20.3345)">
                    <path d="M35.9475044,0.992959434 L36.1216085,1.0826127 C37.061362,1.59443563 37.8023488,2.40659666 38.2260772,3.38922247 C38.6435985,4.35745403 38.6386812,5.26697193 38.2901772,9.06147645 L35.2483971,42.1803107 C35.2085341,42.614338 35.1952811,42.7516392 35.1782334,42.8972669 C35.1660078,43.0017016 35.1543129,43.0836229 35.1411939,43.1569748 C35.1092249,43.3357218 35.0671035,43.5125033 35.015034,43.686461 C34.9643369,43.8558341 34.9085883,44.0033497 34.6703054,44.6065302 L29.1014162,58.703407 L10.6160039,58.703407 L4.96890046,44.6244067 C4.72303064,44.0114197 4.66551521,43.8614797 4.61325466,43.6891815 C4.55958023,43.5122219 4.51621281,43.3322987 4.48337079,43.1503178 C4.45139388,42.9731306 4.4342811,42.8134522 4.37387593,42.1557621 L1.33435047,9.06147645 C0.985846402,5.26697193 0.980929092,4.35745403 1.39845041,3.38922247 C1.82217883,2.40659666 2.56316566,1.59443563 3.5029191,1.0826127 C4.42890633,0.578287336 5.33506199,0.5 9.14553698,0.5 L30.4789907,0.5 C34.051311,0.5 35.0710069,0.568807229 35.9475044,0.992959434 Z" id="Rectangle-3" stroke="#F1F1F1"></path>
                    <circle id="Oval-4" fill="#00ACE1" cx="19.8122638" cy="32.089684" r="5.55"></circle>
                    <path d="M28.7772629,60.9556395 C28.7772629,63.9373116 28.7191783,64.6482337 28.3518914,65.3690749 C27.9777239,66.1034199 27.3806828,66.700461 26.6463379,67.0746284 C25.9254966,67.4419154 25.2145745,67.5 22.2329025,67.5 L17.3916252,67.5 C14.4099531,67.5 13.699031,67.4419154 12.9781898,67.0746284 C12.2438448,66.700461 11.6468037,66.1034199 11.2726363,65.3690749 C10.9053493,64.6482337 10.8472647,63.9373116 10.8472647,60.9556395 L10.8472647,58.8140044 L28.7772629,58.8140044 Z" id="Rectangle-4" stroke="#F1F1F1"></path>
                    <line x1="1.50411029" y1="9.04302972" x2="38.1204174" y2="9.04302972" id="Path" stroke="#F1F1F1"></line>
                </g>
            </g>
        </g>
    </g>
</svg>